<?xml version="1.0" encoding="UTF-8"?>
<svg id="Main" xmlns="http://www.w3.org/2000/svg" viewBox="0 0 1320.21 1255.59">
  <defs>
    <style>
      .cls-1, .cls-2, .cls-3 {
        fill: #fff;
      }

      .cls-4 {
        fill: #41220e;
      }

      .cls-4, .cls-3 {
        font-family: Sylfaen, Sylfaen;
        font-size: 230px;
      }

      .cls-5 {
        fill: #deb887;
      }

      .cls-6, .cls-2, .cls-7 {
        stroke: #41220e;
      }

      .cls-6, .cls-2, .cls-7, .cls-8 {
        stroke-miterlimit: 10;
        stroke-width: 5px;
      }

      .cls-6, .cls-9, .cls-8 {
        fill: #beddf1;
      }

      .cls-10 {
        fill: #e6e6e6;
      }

      .cls-11 {
        fill: #87adde;
      }

      .cls-7 {
        fill: none;
      }

      .cls-12 {
        fill: #1a4277;
      }

      .cls-8 {
        stroke: #2d1700;
      }
    </style>
  </defs>
  <polygon id="Polygon-lg" class="cls-8" points="660.1 3.09 2.94 480.55 253.95 1253.09 1066.25 1253.09 1317.27 480.55 660.1 3.09"/>
  <g id="Colors">
    <polygon id="Colored-Bg-Triangle-3" class="cls-12" points="660.6 31.04 660.1 676.04 1291.52 489.25 660.6 31.04"/>
    <polygon id="Colored-Bg-Triangle-2" class="cls-5" points="659.1 30.69 659.6 675.69 28.18 488.91 659.1 30.69"/>
    <polygon id="Colored-Bg-Triangle-1" class="cls-1" points="28.58 490.33 659.1 676.54 269.41 1231.97 28.58 490.33"/>
    <polyline id="Colored-Bg-Triangle-4" class="cls-11" points="1293.86 490.65 663.34 676.85 1053.04 1232.29"/>
    <polyline id="Colored-Bg-Triangle-5" class="cls-10" points="1047.62 1228.87 660.57 674.76 275.6 1230.37"/>
    <polygon id="Colored-Bg-Stick-3" class="cls-9" points="670.1 608.54 651.1 608.54 651.1 39.54 660.1 33.54 670.1 40.54 670.1 608.54"/>
    <polygon id="Colored-Bg-Stick-4" class="cls-9" points="734.86 670.56 729.31 652.4 1281.21 483.57 1289.66 490.39 1285.8 502.03 734.86 670.56"/>
    <polygon id="Colored-Bg-Stick-2" class="cls-9" points="591.21 650.17 585.65 668.34 33.74 499.51 30.56 489.12 40.27 481.64 591.21 650.17"/>
    <polygon id="Colored-Bg-Stick-1" class="cls-9" points="603.63 736.94 619.23 747.8 282.64 1231.43 271.7 1231.39 267.64 1219.73 603.63 736.94"/>
    <polygon id="Colored-Bg-Stick-5" class="cls-9" points="700.57 746.78 716.17 735.92 1052 1218.51 1048.16 1228.74 1035.82 1228.51 700.57 746.78"/>
  </g>
  <circle id="Circle-lg" class="cls-2" cx="660.6" cy="684.04" r="75"/>
  <polygon id="Polygon-sm" class="cls-6" points="659.6 628.51 607.03 666.71 627.11 728.51 692.09 728.51 712.18 666.71 659.6 628.51"/>
  <g id="Outlines">
    <line class="cls-7" x1="670.6" y1="609.54" x2="670.6" y2="39.04"/>
    <line class="cls-7" x1="650.6" y1="609.54" x2="650.6" y2="38.04"/>
    <line class="cls-7" x1="734.97" y1="669.92" x2="1286.12" y2="501.32"/>
    <line class="cls-7" x1="729.12" y1="650.79" x2="1281.24" y2="481.9"/>
    <line class="cls-7" x1="585.95" y1="669.09" x2="33.89" y2="500.21"/>
    <line class="cls-7" x1="591.8" y1="649.96" x2="39.6" y2="481.04"/>
    <line class="cls-7" x1="1054.19" y1="1220.59" x2="716.6" y2="736.04"/>
    <line class="cls-7" x1="1037.77" y1="1232.01" x2="700.29" y2="747.06"/>
    <line class="cls-7" x1="266.6" y1="1219.04" x2="605.29" y2="734.45"/>
    <line class="cls-7" x1="284.81" y1="1229.97" x2="621.6" y2="746.04"/>
    <polygon id="Polygon-Outline-sm" class="cls-7" points="660.65 30.9 29.77 489.25 270.74 1230.9 1050.55 1230.9 1291.52 489.25 660.65 30.9"/>
  </g>
  <g id="Letters">
    <text class="cls-4" transform="translate(275.3 877.05)"><tspan x="0" y="0">ს</tspan></text>
    <text class="cls-3" transform="translate(406.3 423.05)"><tspan x="0" y="0">კ</tspan></text>
    <text class="cls-3" transform="translate(810.15 481.58)"><tspan x="0" y="0">ს</tspan></text>
    <text class="cls-3" transform="translate(934.19 876.8)"><tspan x="0" y="0">ჰ</tspan></text>
    <text class="cls-4" transform="translate(594.36 1072.97)"><tspan x="0" y="0">ი</tspan></text>
  </g>
</svg>